<svg data-v-423bf9ae="" xmlns="http://www.w3.org/2000/svg" viewBox="0 0 175.4132419855146 163" class="iconAbove"><!----><!----><!----><g data-v-423bf9ae="" id="c5b409e4-520f-4dd1-af32-d274295c1373" fill="#000000" transform="matrix(6.198347522687943,0,0,6.198347522687943,-7.004132613003989,77.89669182771001)"><path d="M1.13 4.05L1.13 13.73L2.56 13.73L2.56 10.01L4.87 10.01L7.20 13.73L8.82 13.73L6.33 9.86C7.57 9.51 8.36 8.57 8.36 7.03C8.36 5.04 7.06 4.05 5.10 4.05ZM2.56 5.35L5.12 5.35C6.24 5.35 7 5.89 7 7.06C7 8.23 6.24 8.78 5.12 8.78L2.56 8.78ZM10.28 4.05L10.28 13.73L13.12 13.73C15.90 13.73 18.13 11.86 18.13 8.86C18.13 5.88 15.93 4.05 13.12 4.05ZM11.72 5.38L13.13 5.38C15.12 5.38 16.69 6.66 16.69 8.88C16.69 11.10 15.11 12.42 13.13 12.42L11.72 12.42ZM20.15 4.05L20.15 13.73L21.57 13.73L21.57 7.35L24.47 13.73L25.10 13.73L28 7.39L28 13.73L29.43 13.73L29.43 4.05L28.01 4.05L24.82 11.23L21.63 4.05Z"></path></g><defs data-v-423bf9ae=""><linearGradient data-v-423bf9ae="" gradientTransform="rotate(25)" id="f8ebc99a-5988-476f-bb86-2b11fd399034" x1="0%" y1="0%" x2="100%" y2="0%"><stop data-v-423bf9ae="" offset="0%" style="stop-color: rgb(13, 33, 117); stop-opacity: 1;"></stop><stop data-v-423bf9ae="" offset="100%" style="stop-color: rgb(31, 30, 251); stop-opacity: 1;"></stop></linearGradient></defs><g data-v-423bf9ae="" id="c2a7a05b-45d8-4fde-a5c2-eebbb8f6ded3" transform="matrix(2.288794936218153,0,0,2.288794936218153,14.758562041019104,-27.90244039351586)" stroke="none" fill="url(#f8ebc99a-5988-476f-bb86-2b11fd399034)"><path d="M24.617 30.645h4.794V44.74h-4.794zM38.062 30.645h4.795V44.74h-4.795zM51.506 30.645h4.795V44.74h-4.795zM32.034 37.692h3.233v7.047h-3.233zM45.649 37.692h3.232v7.047h-3.232zM23.398 46.46H57.52v2.212H23.398zM19.739 49.448h41.438v2.213H19.739zM40.457 16.679L18.917 28.89 62 28.891 40.457 16.679zm0 1.778l15.676 8.886H24.784l15.673-8.886z"></path><circle cx="40.459" cy="23.486" r="2.638"></circle><path d="M23.398 34.481a19.812 19.812 0 0 0-2.966.736v-4.892h-1.384v4.892c-1.262-.428-3.663-1.064-6.804-1.064a23.69 23.69 0 0 0-7.128 1.109v-19.72c.854-.497 3.458-1.819 6.948-1.819 2.389 0 4.736.618 6.984 1.839v11.673l1.384-.771V15.563c2.248-1.221 4.595-1.839 6.984-1.839 3.489 0 6.094 1.322 6.947 1.819v3.162l2.518-1.402-1.133-.951v-1.56l-.301-.206c-.134-.093-3.334-2.247-8.031-2.247-2.635 0-5.214.689-7.677 2.033-2.462-1.344-5.041-2.033-7.676-2.033-4.698 0-7.897 2.154-8.032 2.247l-.301.206v1.56L2 17.807V39.909h21.398v-5.428z"></path></g><!----></svg>